<svg width="360" height="360" viewBox="0 0 360 360" fill="none" xmlns="http://www.w3.org/2000/svg">
<path d="M317.626 186.772C317.626 186.772 311.781 259.435 260.833 281.15C209.884 302.865 113.834 308.712 61.2146 259.435C8.59699 210.16 20.2892 121.626 61.2146 72.3469C102.14 23.0691 186.498 14.7186 224.918 29.7506C263.336 44.7863 320.968 75.6885 317.626 186.772Z" fill="#EE9469"/>
<g opacity="0.300003">
<g opacity="0.300003">
<path opacity="0.300003" d="M121.552 160.041C76.2302 151.961 46.1498 164.332 26.363 182.032C28.3114 210.888 39.0249 238.653 61.2143 259.436C113.834 308.712 209.884 302.865 260.832 281.15C311.781 259.436 317.626 186.772 317.626 186.772C317.924 176.881 317.731 167.636 317.116 158.97C276.411 204.396 219.902 177.576 121.552 160.041Z" fill="#00998E"/>
</g>
</g>
<path d="M51.8606 169.449C51.8606 169.449 39.7124 160.351 46.1181 141.22C52.5203 122.089 84.6679 132.75 77.2907 151.805C69.9116 170.86 62.7795 171.679 62.7795 171.679C38.9445 240.698 39.0239 240.467 36.5275 247.138C34.4187 252.762 24.2477 252.262 28.2383 241.387C32.2288 230.509 51.8606 169.449 51.8606 169.449Z" fill="white"/>
<path d="M69.1171 109.785C69.1171 109.785 38.9268 101.642 32.3048 72.5748C24.9167 40.1369 70.8113 28.834 81.0418 58.1663C91.0343 86.821 69.1171 109.785 69.1171 109.785Z" fill="#E63923"/>
<path d="M81.042 58.1664C77.4264 47.8007 69.357 42.5323 60.7595 41.4545C67.3311 43.6967 71.5721 50.0591 74.4578 58.3394C83.6014 84.5572 71.7199 101.575 69.1173 109.785C69.1173 109.785 91.0345 86.821 81.042 58.1664Z" fill="#B92925"/>
<path d="M78.1133 65.799C80.4636 75.3427 74.6347 84.9856 65.0909 87.3377C55.5454 89.6844 45.9025 83.8555 43.5504 74.3117C41.2001 64.768 47.029 55.1251 56.5746 52.773C66.1219 50.4209 75.763 56.2534 78.1133 65.799Z" fill="#B92925"/>
<path d="M73.5204 64.2248C75.6779 72.9881 70.3266 81.8415 61.5633 83.999C52.8018 86.1564 43.9484 80.8051 41.7891 72.04C39.6298 63.2803 44.9848 54.4287 53.7463 52.2694C62.5078 50.1102 71.3612 55.4651 73.5204 64.2248Z" fill="white"/>
<path d="M61.5344 313.166C61.5344 313.166 99.6192 221.609 98.4441 194.249C97.2707 166.892 83.3471 114.272 98.125 101.598C112.905 88.9197 115.311 118.214 145.901 121.285C176.49 124.357 189.374 113.596 208.474 97.1567C227.575 80.7133 252.047 58.7493 261.152 63.7942C270.258 68.8391 244.159 98.7464 235.158 108.944C226.155 119.144 205.527 134.834 183.842 186.282C162.161 237.728 133.885 337.154 133.885 337.154C133.885 337.154 86.6708 344.331 61.5344 313.166Z" fill="#FFDB90"/>
<path d="M237.909 105.808C237.926 105.637 237.938 105.513 237.938 105.513C237.938 105.513 231.934 106.758 229.755 104.673C224.462 99.6009 228.002 81.5877 228.002 81.5877L206.124 104.453C206.124 104.453 209.686 118.263 211.032 120.352C211.962 121.789 216.365 124.215 219.543 125.656C226.143 117.946 231.576 113.004 235.159 108.945C235.95 108.045 236.886 106.984 237.909 105.808Z" fill="#FFC181"/>
<path d="M149.468 153.047L117.977 213.637C117.977 213.637 138.474 240.071 161.058 248.859C168.006 227.849 175.455 206.69 182.34 189.904C182.4 189.758 182.456 189.609 182.517 189.463L170.466 163.659L149.468 153.047Z" fill="#FFC181"/>
<path d="M228.675 56.6155C228.448 52.3042 224.533 51.0803 224.533 51.0803L222.33 54.7536C200.045 50.8514 126.905 46.3833 124.279 50.2873C121.624 54.2273 115.087 169.727 118.411 204.546L115.093 207.819C115.093 207.819 116.014 213.048 119.357 214.472C127.161 220.086 204.245 227.255 211.013 219.477C217.785 211.703 230.98 60.6583 228.675 56.6155Z" fill="#001C3F"/>
<path d="M120.134 44.752C116.047 48.391 107.29 202.199 115.093 207.819C122.899 213.434 200.103 221.723 206.871 213.947C213.643 206.168 226.84 55.123 224.531 51.0802C222.228 47.0392 126.326 39.2438 120.134 44.752Z" fill="#003D6B"/>
<path d="M129.444 59.291C127.135 64.2746 115.924 180.719 122.298 184.846C128.673 188.974 202.616 193.922 205.176 190.407C209.858 183.981 218.779 69.3989 214.554 64.4765C211.254 60.6374 131.753 54.3055 129.444 59.291Z" fill="#BDDCE0"/>
<g opacity="0.300003">
<g opacity="0.300003">
<path opacity="0.300003" d="M198.402 177.436C198.212 180.589 196.022 183.02 193.508 182.87L137.048 179.5C134.535 179.349 132.65 176.674 132.836 173.521C133.027 170.371 135.215 167.937 137.729 168.089L194.189 171.459C196.704 171.609 198.589 174.284 198.402 177.436Z" fill="#00998E"/>
</g>
</g>
<path d="M209.508 118.901C209.508 141.068 191.538 159.04 169.369 159.04C147.201 159.04 129.231 141.068 129.231 118.901C129.231 96.7327 147.201 78.761 169.369 78.761C191.538 78.761 209.508 96.7327 209.508 118.901Z" fill="white"/>
<path d="M129.788 124.259C129.788 124.259 131.043 137.007 138.921 138.078C146.805 139.152 205.754 137.451 208.204 131.871L131.075 124.338" fill="#B92925"/>
<path d="M172.473 96.4031C172.473 96.4031 208.712 128.138 208.204 131.871C207.697 135.604 141.043 129.528 141.043 129.528C141.043 129.528 141.331 117.286 143.833 111.289C146.34 105.294 172.473 96.4031 172.473 96.4031Z" fill="#EA5A08"/>
<path d="M153.648 106.426C153.648 106.426 166.954 110.07 167.136 110.798C167.319 111.527 166.384 113.23 165.894 113.725C165.403 114.221 151.721 110.25 151.721 110.25" fill="#FFB520"/>
<path d="M146.767 124.922C150.051 125.373 153.073 123.071 153.522 119.787C153.967 116.503 151.666 113.484 148.383 113.033C145.99 112.707 143.748 113.852 142.527 115.762C142.21 117.269 141.958 118.85 141.758 120.4C142.327 122.721 144.252 124.583 146.767 124.922Z" fill="#B92925"/>
<path d="M145.368 94.9617C145.368 94.9617 129.734 108.166 129.788 124.26C129.788 124.26 131.309 132.32 141.042 129.528C141.042 129.528 158.421 103.467 172.473 96.4036C172.473 96.4036 167.193 82.9667 158.098 86.5913C149.005 90.2177 145.368 94.9617 145.368 94.9617Z" fill="#E63923"/>
<path d="M180.453 116.41C184.31 116.936 187.955 115.28 190.17 112.398C184.018 106.668 177.907 101.208 174.725 98.3895C173.022 99.981 171.834 102.142 171.495 104.629C170.717 110.359 174.725 115.629 180.453 116.41Z" fill="#B92925"/>
<path d="M172.552 129.98C173.196 125.246 169.883 120.886 165.148 120.244C160.415 119.599 156.055 122.913 155.411 127.648C155.263 128.715 155.346 129.755 155.575 130.75C160.485 131.136 166.199 131.561 172.024 131.945C172.267 131.32 172.46 130.673 172.552 129.98Z" fill="#FFB520"/>
<path d="M162.336 127.464C160.272 127.185 158.376 128.628 158.093 130.688C158.083 130.775 158.092 130.86 158.086 130.944C160.458 131.126 162.969 131.314 165.568 131.5C165.728 129.519 164.328 127.738 162.336 127.464Z" fill="#FF7305"/>
<path d="M170.252 125.161C170.119 126.153 169.202 126.848 168.212 126.713C167.219 126.58 166.523 125.664 166.657 124.673C166.793 123.682 167.707 122.982 168.7 123.119C169.692 123.253 170.387 124.166 170.252 125.161Z" fill="#FF7305"/>
<path d="M197.121 119.01C195.534 120.457 194.421 122.447 194.108 124.745C193.668 127.977 194.91 131.046 197.165 133.076C203.664 133.135 208.076 132.821 208.204 131.872C208.394 130.469 203.419 125.134 197.121 119.01Z" fill="#FFB520"/>
<path d="M182.864 122.509C182.543 121.763 179.252 122.159 179.1 123.264C178.99 124.084 181.162 129.706 182.296 132.557C183.626 132.626 184.931 132.689 186.218 132.747C184.994 128.944 183.08 123.015 182.864 122.509Z" fill="#B92925"/>
<g opacity="0.300003">
<g opacity="0.300003">
<path opacity="0.300003" d="M158.098 86.592C149.005 90.2185 145.368 94.9624 145.368 94.9624C145.368 94.9624 129.734 108.165 129.788 124.259C129.788 124.259 130.386 127.418 133.223 129.098C133.232 129.095 133.24 129.091 133.247 129.087C136.311 127.171 136.459 124.136 136.902 120.843C137.318 117.752 137.67 115.286 140.667 113.814C143.153 112.594 146.188 113.069 148.187 110.908C151.449 107.386 148.502 99.4107 154.888 98.3491C157.451 97.9256 160.238 98.6213 162.476 96.5107C164.955 94.1712 163.558 90.7844 167.419 89.5011C167.61 89.438 167.797 89.393 167.985 89.3497C165.564 86.8173 162.226 84.9446 158.098 86.592Z" fill="#E63923"/>
</g>
</g>
<path d="M182.895 105.718C180.918 103.921 179.082 102.27 177.526 100.88C177 101.419 176.627 102.115 176.517 102.921C176.246 104.905 177.638 106.731 179.624 107.001C180.907 107.178 182.12 106.648 182.895 105.718Z" fill="#FF7305"/>
<path d="M185.046 112.669C184.889 113.813 183.839 114.615 182.69 114.46C181.544 114.304 180.742 113.249 180.897 112.105C181.054 110.96 182.11 110.158 183.256 110.313C184.401 110.47 185.199 111.524 185.046 112.669Z" fill="#FF7305"/>
<path d="M202.452 127.569C203.333 127.686 204.171 127.414 204.809 126.893C203.632 125.573 202.203 124.072 200.604 122.457C200.197 122.902 199.914 123.47 199.826 124.113C199.597 125.793 200.776 127.341 202.452 127.569Z" fill="#FF7305"/>
<path d="M201.45 130.812C201.302 131.882 200.318 132.63 199.251 132.484C198.181 132.338 197.433 131.354 197.58 130.286C197.723 129.217 198.709 128.469 199.778 128.615C200.845 128.759 201.596 129.743 201.45 130.812Z" fill="#FF7305"/>
<path d="M141.042 129.529C141.042 129.529 138.059 122.328 132.884 123.46C126.138 124.936 129.786 137.964 136.849 137.798C143.913 137.634 141.22 130.505 141.22 130.505" fill="#B92925"/>
<path d="M137.839 129.672C137.839 129.672 135.72 125.155 132.733 126.986C129.75 128.819 134.08 135.38 136.655 134.735C139.231 134.09 137.839 129.672 137.839 129.672Z" fill="#EA5A08"/>
<path d="M157.97 48.5374C157.97 48.5374 185.458 49.8982 188.362 50.5651C191.26 51.2302 189.263 54.4259 186.592 54.0618C182.046 53.4435 158.988 52.555 157.653 52.3693C156.317 52.1891 154.158 48.5644 157.97 48.5374Z" fill="#001C3F"/>
<path d="M171.228 203.061C170.624 207.484 166.551 210.582 162.126 209.98C157.703 209.382 154.602 205.305 155.204 200.883C155.806 196.457 159.88 193.357 164.303 193.959C168.728 194.561 171.828 198.636 171.228 203.061Z" fill="#006B93"/>
<path d="M93.6792 109.287C93.6792 109.287 102.333 75.6483 113.037 68.9469C123.74 62.242 130.933 83.3481 125.708 99.7698C120.481 116.197 112.309 136.297 112.309 136.297" fill="#FFDB90"/>
<path d="M237.938 105.514C237.938 105.514 246.024 118.038 241.404 128.017C237.464 136.526 222.955 155.698 215.014 157.068C207.076 158.434 206.924 144.543 213.31 133.581C219.7 122.617 237.938 105.514 237.938 105.514Z" fill="#FFDB90"/>
<path d="M237.938 105.514C237.938 105.514 246.024 118.038 241.404 128.017C237.464 136.526 222.955 155.698 215.014 157.068C207.076 158.434 206.924 144.543 213.31 133.581C219.7 122.617 237.938 105.514 237.938 105.514Z" fill="#FFDB90"/>
<path d="M239.93 129.857C239.93 129.857 248.019 142.38 243.398 152.358C239.456 160.867 224.947 180.039 217.007 181.407C209.073 182.777 208.922 168.886 215.306 157.92C221.69 146.96 239.93 129.857 239.93 129.857Z" fill="#FFDB90"/>
<path d="M240.376 153.58C240.376 153.58 248.463 166.101 243.844 176.083C239.907 184.592 226.854 203.009 218.916 204.381C210.977 205.747 209.365 192.608 215.753 181.645C222.139 170.681 240.376 153.58 240.376 153.58Z" fill="#FFDB90"/>
<path d="M236.356 134.131C236.272 134.293 236.214 134.437 236.356 134.131V134.131Z" fill="#FFC181"/>
<path d="M241.6 155.752C242.321 154.507 242.934 153.357 243.399 152.358C247.501 143.499 241.598 132.654 240.217 130.329C240.677 129.498 241.077 128.716 241.405 128.017C246.025 118.039 237.939 105.514 237.939 105.514C241.083 117.366 239.853 126.579 236.357 134.131C237.755 136.497 244.846 143.716 237.216 159.813C237.216 159.813 237.943 158.568 237.216 159.813C241.27 161.998 242.305 174.701 240.08 182.648C240.866 181.444 241.571 180.29 242.193 179.216C242.229 179.155 242.263 179.092 242.301 179.03C242.582 178.536 242.844 178.061 243.085 177.605C243.121 177.532 243.155 177.464 243.191 177.394C243.431 176.934 243.655 176.492 243.844 176.083C247.292 168.632 243.662 159.77 241.6 155.752Z" fill="#FFC181"/>
<path d="M237.63 130.766L224.622 146.406C224.622 146.406 237.136 136.413 238.666 137.163C240.194 137.916 240.326 134.942 240.326 134.942L237.63 130.766Z" fill="#FFC181"/>
<path d="M239.314 154.386C239.314 154.386 234.426 164.332 229.049 169.856C229.049 169.856 237.834 161.259 239.451 163.38L241.599 159.594" fill="#FFC181"/>
<path d="M215.007 139.115C215.007 139.115 211.676 147.635 212.453 149.919C213.23 152.201 214.627 155.924 217.355 153.85C220.084 151.772 224.212 147.44 224.621 146.406C225.035 145.375 218.819 133.106 215.007 139.115Z" fill="white"/>
<path d="M217.224 164.344C217.224 164.344 214.046 172.462 214.787 174.638C215.528 176.812 216.858 180.359 219.461 178.383C222.062 176.404 225.989 172.275 226.384 171.291C226.775 170.307 220.852 158.62 217.224 164.344Z" fill="white"/>
<path d="M219.127 188.445C219.127 188.445 216.245 195.806 216.915 197.779C217.589 199.751 218.797 202.972 221.155 201.177C223.516 199.38 227.077 195.638 227.436 194.746C227.791 193.852 222.416 183.252 219.127 188.445Z" fill="white"/>
<path d="M116.339 72.6595C114.286 71.1779 112.307 70.8174 110.622 70.949C106.638 74.9738 103.037 82.2843 100.188 89.4633C105.62 93.2934 112.983 93.2934 114.69 90.7935C116.728 87.8069 121.914 76.6789 116.339 72.6595Z" fill="white"/>
<g opacity="0.300003">
<g opacity="0.300003">
<path opacity="0.300003" d="M127.84 68.7202C146.362 68.9365 191.678 70.5893 215.652 75.4233C215.607 69.3222 215.268 65.3119 214.552 64.4773C211.254 60.6382 131.753 54.3064 129.444 59.2918C129.089 60.0578 128.52 63.477 127.84 68.7202Z" fill="#00998E"/>
</g>
</g>
<path d="M101.177 117.841C99.1426 115.312 94.9718 114.674 92.6593 112.14C92.3457 113.524 92.0988 115.002 91.9077 116.547C94.9484 116.704 99.0038 118.091 101.177 117.841Z" fill="#FFC181"/>
<path d="M101.457 122.448C99.2405 120.132 94.8481 120.669 91.6037 119.593C91.51 120.871 91.4433 122.181 91.4109 123.535C94.5363 124.005 99.3523 125.164 101.457 122.448Z" fill="#FFC181"/>
<path d="M238.083 131.442C238.083 131.442 238.964 120.443 237.593 120.052C236.218 119.661 236.639 133.794 236.639 133.794L238.083 131.442Z" fill="#FFC181"/>
<path d="M234.861 134.877C234.861 134.877 235.746 123.881 234.372 123.491C232.995 123.1 233.422 137.231 233.422 137.231L234.861 134.877Z" fill="#FFC181"/>
<path d="M239.289 157.817C239.289 157.817 240.172 146.82 238.8 146.429C237.425 146.04 237.847 160.171 237.847 160.171L239.289 157.817Z" fill="#FFC181"/>
<g opacity="0.5">
<g opacity="0.5">
<path opacity="0.5" d="M129.444 59.2912C128.516 61.2936 126.149 81.3165 124.064 104.809L157.596 57.7735C142.618 57.1319 130.333 57.3752 129.444 59.2912Z" fill="#BDDCE0"/>
</g>
</g>
<g opacity="0.300003">
<g opacity="0.300003">
<path opacity="0.300003" d="M205.176 190.407C207.899 186.669 212.054 146.371 214.224 112.32L169.149 190.746C187.285 191.845 203.984 192.043 205.176 190.407Z" fill="#6CC5D1"/>
</g>
</g>
<path d="M299.962 256.845C291.476 241.827 276.051 218.457 270.021 218.392C263.988 218.327 259.934 222.08 259.934 222.08C259.934 222.08 254.329 216.824 248.294 216.757C242.262 216.696 239.098 221.726 239.098 221.726C227.179 216.534 222.662 226.157 222.662 226.157C222.662 226.157 206.749 211.215 196.614 201.365C186.272 191.318 177.336 185.006 173.208 189.449C169.708 193.214 169.001 196.52 178.559 207.657C187.404 217.954 204.438 236.023 213.611 246.187C221.085 253.881 222.807 267.461 217.489 264.416C212.172 261.376 198.368 255.096 192.571 256.156C184.531 257.623 186.69 268.037 192.645 269.469C198.604 270.9 204.939 280.175 213.73 287.392C222.515 294.61 242.741 293.552 253.287 296.342C260.473 298.24 268.135 304.12 272.288 307.671C282.32 318.791 295.975 333.796 295.975 333.796C295.975 333.796 319.374 330.037 334.999 307.114C334.999 307.114 308.446 271.866 299.962 256.845Z" fill="#FFDB90"/>
<path d="M264.888 225.447C265.289 225.185 264.182 222.642 262.949 220.093C261.044 221.061 259.934 222.08 259.934 222.08C259.934 222.08 264.108 225.949 264.888 225.447Z" fill="#FFC181"/>
<path d="M243.793 224.874C244.195 224.516 242.383 222.021 240.696 219.873C239.643 220.873 239.099 221.726 239.099 221.726C239.099 221.726 243.07 225.522 243.793 224.874Z" fill="#FFC181"/>
<path d="M228.864 230.484C229.372 230.263 226.137 226.166 224.273 223.868C223.17 225.093 222.662 226.157 222.662 226.157C222.662 226.157 228.161 230.785 228.864 230.484Z" fill="#FFC181"/>
<path d="M172.788 194.47C172.788 194.47 174.61 198.687 177.386 200.49C178.777 201.391 184.895 195.665 184.559 194.309C184.224 192.952 179.359 189.796 177.822 189.71C176.281 189.625 172.901 192.415 172.788 194.47Z" fill="white"/>
<path d="M195.503 219.277C195.503 219.277 196.216 213.965 202.934 211.566C202.934 211.566 197.608 216.617 195.503 219.277Z" fill="#FFC181"/>
<path d="M200.141 223.456C200.141 223.456 200.676 218.125 207.313 215.502C207.313 215.502 202.154 220.727 200.141 223.456Z" fill="#FFC181"/>
<path d="M203.98 212.828C203.98 212.828 203.268 218.14 196.549 220.542C196.549 220.542 201.875 215.49 203.98 212.828Z" fill="#FFC181"/>
<path d="M335 307.113C335 307.113 309.95 273.864 300.736 258.188C303.944 263.866 315.876 286.363 312.421 301.177C310.604 308.98 298.153 321.251 290.659 327.95C293.851 331.463 295.974 333.797 295.974 333.797C295.974 333.797 319.375 330.038 335 307.113Z" fill="#FFC181"/>
<path d="M216.629 246.192C216.629 246.192 183.434 210.218 176.91 202.866C173.438 198.953 171.684 196.042 170.845 193.917C170.617 196.784 172.578 200.687 178.559 207.656C186.92 217.391 202.608 234.081 212.048 244.456V244.46C212.586 245.055 213.115 245.633 213.61 246.186C217.644 250.337 220 256.211 220.479 260.249C222.586 254.813 216.629 246.192 216.629 246.192Z" fill="#FFC181"/>
<path d="M198.448 272.844C199.187 270.016 199.086 263.518 197.936 262.017C196.17 259.704 191.26 258.142 190.089 260.645C189.225 262.5 190.143 266.584 190.683 268.592C190.981 268.789 191.293 268.965 191.615 269.109C191.945 269.259 192.289 269.38 192.644 269.468C194.521 269.917 196.435 271.148 198.448 272.844Z" fill="white"/>
<path d="M212.312 286.19C212.777 286.601 213.247 286.995 213.73 287.392C213.979 287.601 214.271 287.776 214.547 287.972C214.428 287.358 214.336 286.723 214.285 285.986C214.152 284.075 214.415 281.258 213.627 280.595C212.551 280.723 212.349 283.673 212.312 286.19Z" fill="#FFC181"/>
<path d="M209.427 279.429C208.591 279.229 209.332 281.875 209.633 283.749C210.2 284.288 210.781 284.823 211.372 285.357C210.959 282.621 210.741 279.847 209.427 279.429Z" fill="#FFC181"/>
<path d="M205.84 280.015C206.662 280.851 207.511 281.698 208.38 282.545C207.987 280.837 207.481 278.874 206.475 278.029C205.958 278.079 205.79 278.896 205.84 280.015Z" fill="#FFC181"/>
<path d="M289.177 144.028C286.731 145.324 286.216 139.984 282.807 130.732C281.901 128.273 281.282 126.914 279.977 124.141C278.737 121.167 274.39 122.309 275.421 124.57C278.393 131.747 283.191 142.844 283.507 144.223C284.011 146.431 281.372 147.994 279.932 144.958C279.172 143.352 274.833 133.133 271.894 127.261C270.536 125.008 266.721 126.531 267.629 129.185C271.94 137.963 273.883 142.877 275.738 147.011C277.65 151.27 275.069 151.986 272.993 149.621C271.953 148.435 265.993 131.702 264.695 132.06C262.157 132.248 264.012 140.786 266.261 146.251C274.345 165.904 280.343 163.864 280.343 163.864C311.662 229.825 311.557 229.608 314.778 235.954C317.496 241.32 327.548 239.702 322.377 229.325C317.211 218.956 293.686 158.478 293.686 158.478C293.686 158.478 300.743 150.29 290.929 129.238C287.475 121.832 284.46 123.252 284.954 124.807C285.907 129.42 291.45 142.826 289.177 144.028Z" fill="white"/>
</svg>
