<svg width="360" height="360" viewBox="0 0 360 360" fill="none" xmlns="http://www.w3.org/2000/svg">
<path d="M314.265 205.542C314.265 205.542 308.348 282.984 256.761 306.128C205.176 329.272 107.93 335.502 54.6532 282.984C1.38012 230.468 13.2182 136.111 54.6532 83.5916C96.0918 31.0718 181.5 22.1734 220.4 38.1954C259.297 54.2174 317.648 87.1525 314.265 205.542Z" fill="#EE9469"/>
<g opacity="0.300003">
<g opacity="0.300003">
<path opacity="0.300003" d="M115.744 177.053C69.8563 168.441 39.4001 181.627 19.3662 200.491C21.3386 231.245 32.1878 260.838 54.6534 282.984C107.93 335.502 205.176 329.271 256.761 306.128C308.348 282.984 314.266 205.542 314.266 205.542C314.566 195 314.374 185.15 313.75 175.912C272.535 224.327 215.321 195.741 115.744 177.053Z" fill="#00998E"/>
</g>
</g>
<path d="M189.225 103.075C189.225 103.075 188.526 148.672 192.81 151.376C197.092 154.079 218.15 153.277 220.687 151.942C223.219 150.608 220.687 102.273 219.669 101.472C218.653 100.67 190.495 100.94 189.225 103.075Z" fill="#003D6B"/>
<path d="M185.927 103.092C185.927 103.092 185.227 149.091 189.51 151.817C193.792 154.546 214.851 153.736 217.385 152.39C219.921 151.044 217.385 102.284 216.369 101.474C215.355 100.667 187.195 100.938 185.927 103.092Z" fill="#FFB520"/>
<path d="M209.867 118.216C209.867 122.634 206.462 126.218 202.263 126.218C198.068 126.218 194.664 122.634 194.664 118.216C194.664 113.796 198.068 110.215 202.263 110.215C206.462 110.215 209.867 113.796 209.867 118.216Z" fill="#B92925"/>
<path d="M211.786 133.764L190.86 134.718C188.754 134.815 188.956 138.366 191.055 138.269L211.98 137.316C214.086 137.219 213.884 133.669 211.786 133.764Z" fill="#FF6901"/>
<path d="M211.786 142.064L190.86 143.016C188.754 143.112 188.956 146.664 191.055 146.567L211.98 145.615C214.086 145.518 213.884 141.967 211.786 142.064Z" fill="#FF6901"/>
<path d="M207.756 118.216C207.756 122.634 204.351 126.218 200.152 126.218C195.954 126.218 192.551 122.634 192.551 118.216C192.551 113.796 195.954 110.215 200.152 110.215C204.351 110.215 207.756 113.796 207.756 118.216Z" fill="#FF6901"/>
<path d="M179.405 145.92C180.275 145.615 193.042 118.433 196.236 119.351C199.424 120.266 191.882 138.59 191.882 138.59C191.882 138.59 195.072 137.066 196.236 138.285C197.394 139.508 197.104 141.95 197.104 141.95C197.104 141.95 200.59 140.729 201.748 141.95C202.908 143.173 202.62 145.92 202.62 145.92C202.62 145.92 204.36 146.226 204.938 148.057C205.518 149.891 204.36 152.335 204.36 152.335C204.36 152.335 206.678 151.724 206.388 153.556C206.1 155.388 200.008 165.467 195.364 168.52C190.72 171.575 185.79 173.408 184.338 175.24C182.888 177.073 162.289 216.47 162.289 216.47L152.713 210.515L167.509 175.699" fill="#FFDB90"/>
<path d="M138.788 215.554C138.788 215.554 168.673 166.69 170.993 163.33C173.313 159.97 172.149 145.004 174.183 142.867C176.215 140.728 181.149 138.897 183.47 139.507C185.789 140.118 190.144 147.753 189.561 150.197C188.981 152.64 184.917 149.587 183.179 149.28C181.439 148.974 185.499 159.359 184.047 164.856C182.599 170.355 156.195 210.973 156.195 210.973" fill="#FFDB90"/>
<path d="M103.1 172.797C103.1 172.797 119.057 173.102 124.569 185.014C129.152 194.915 132.985 209.752 132.985 209.752L119.347 216.47" fill="#FF4512"/>
<path d="M103.1 172.797C103.1 172.797 119.057 173.102 124.569 185.014C129.152 194.915 132.985 209.752 132.985 209.752L119.347 216.47" fill="#FF6901"/>
<path d="M129.672 198.497L114.651 203.848L119.347 216.47L132.985 209.752C132.985 209.752 131.67 204.68 129.672 198.497Z" fill="#B92925"/>
<path d="M194.058 194.024C194.058 194.024 198.37 208.03 197.975 210.516C197.104 216.013 190.432 247.928 187.53 251.288C184.628 254.646 105.132 268.696 104.26 268.696C103.39 268.696 99.328 256.172 99.328 252.206" fill="#FFB520"/>
<g opacity="0.199997">
<g opacity="0.199997">
<path opacity="0.199997" d="M176.215 233.879L123.71 237.231L99.3275 252.204C99.3275 256.173 103.389 268.695 104.261 268.695C105.131 268.695 184.627 254.645 187.529 251.288L181.873 243.956L176.215 233.879Z" fill="#302D4F"/>
</g>
</g>
<path d="M74.4903 167.914C74.4903 167.914 58.7686 174.623 48.9967 197.435C39.2247 220.246 61.3193 315.517 61.3193 315.517C61.3193 315.517 116.558 332.514 131.856 320.883C147.152 309.255 123.357 199.225 120.383 188.936C117.406 178.648 97.5864 168.216 97.5864 168.216L74.4903 167.914Z" fill="#FFB520"/>
<path d="M117.897 207.766C116.749 208.426 95.7014 248.998 99.1815 255.87C102.665 262.741 177.955 248.081 181.873 243.957C185.787 239.834 195.365 194.482 194.057 194.023C192.753 193.566 122.685 205.016 117.897 207.766Z" fill="#FF6901"/>
<path d="M108.343 226.12L159.284 250.442C171.233 247.901 180.561 245.339 181.872 243.957C183.432 242.317 185.887 234.137 188.196 224.861L141.629 202.48C129.496 204.723 119.592 206.792 117.897 207.766C117.384 208.062 112.859 216.401 108.343 226.12Z" fill="#FFB520"/>
<path d="M181.872 243.957C183.258 242.499 185.347 235.893 187.411 227.946C177.576 223.415 149.905 210.652 135.19 203.695C126.13 205.447 119.28 206.972 117.896 207.766C117.435 208.032 113.755 214.753 109.747 223.14C122.513 228.549 151.285 241.767 166.551 248.817C174.86 246.858 180.842 245.042 181.872 243.957Z" fill="#B92925"/>
<path d="M125.037 215.626C124.951 215.858 124.86 216.027 124.766 216.133C124.681 216.243 124.593 216.318 124.501 216.358C124.419 216.402 124.333 216.411 124.244 216.386C124.16 216.374 124.08 216.352 124.004 216.321C123.747 216.215 123.597 216.087 123.554 215.935C123.521 215.788 123.565 215.505 123.687 215.088C123.747 214.867 123.847 214.552 123.988 214.142C124.129 213.732 124.299 213.245 124.497 212.681C124.705 212.12 124.929 211.499 125.171 210.819C125.421 210.142 125.687 209.427 125.966 208.673C126.099 208.315 126.276 207.971 126.498 207.639C126.72 207.307 127.006 207.04 127.355 206.838C127.714 206.64 128.142 206.538 128.64 206.53C129.146 206.527 129.748 206.668 130.444 206.954C130.93 207.154 131.373 207.397 131.772 207.684C132.171 207.97 132.489 208.312 132.726 208.71C132.963 209.109 133.101 209.566 133.14 210.083C133.179 210.601 133.079 211.183 132.839 211.831C132.588 212.507 132.27 213.023 131.886 213.377C131.502 213.732 131.061 213.957 130.564 214.054C130.067 214.15 129.522 214.138 128.929 214.017C128.337 213.896 127.712 213.701 127.054 213.43C126.892 213.364 126.73 213.297 126.567 213.231C126.405 213.164 126.228 213.08 126.035 212.978L125.037 215.626ZM131.419 211.214C131.659 210.566 131.659 210.004 131.418 209.526C131.188 209.053 130.657 208.646 129.828 208.305C129.513 208.176 129.23 208.093 128.98 208.057C128.743 208.015 128.528 208.032 128.334 208.109C128.145 208.176 127.971 208.305 127.812 208.496C127.663 208.691 127.526 208.957 127.4 209.296C127.278 209.624 127.138 210.001 126.981 210.426C126.827 210.842 126.686 211.236 126.56 211.607C126.775 211.707 127.017 211.811 127.284 211.921C127.56 212.035 127.818 212.14 128.056 212.238C128.342 212.356 128.645 212.458 128.964 212.545C129.293 212.635 129.607 212.664 129.905 212.63C130.207 212.587 130.489 212.464 130.751 212.259C131.017 212.046 131.24 211.697 131.419 211.214Z" fill="#FFB520"/>
<path d="M135.165 219.804C135.275 219.448 135.395 219.08 135.525 218.699C135.665 218.322 135.81 217.914 135.962 217.475C136.114 217.036 136.283 216.566 136.469 216.063C136.659 215.551 136.871 214.98 137.104 214.352C137.358 213.666 137.58 213.083 137.768 212.604C137.961 212.115 138.138 211.725 138.3 211.436C138.463 211.146 138.618 210.948 138.768 210.842C138.926 210.74 139.091 210.725 139.263 210.795C139.349 210.83 139.426 210.873 139.495 210.924C139.564 210.975 139.615 211.046 139.647 211.137C139.683 211.218 139.697 211.33 139.688 211.471C139.693 211.607 139.664 211.773 139.602 211.97C139.492 212.326 139.392 212.641 139.301 212.916C139.21 213.19 139.119 213.465 139.028 213.739C138.941 214.004 138.844 214.282 138.736 214.572C138.632 214.852 138.514 215.171 138.382 215.529C138.22 215.964 138.066 216.379 137.919 216.776C137.772 217.172 137.622 217.561 137.469 217.944C137.317 218.327 137.162 218.714 137.005 219.107C136.849 219.499 136.681 219.909 136.5 220.336C136.405 220.564 136.315 220.733 136.23 220.843C136.145 220.953 136.062 221.03 135.979 221.074C135.897 221.118 135.816 221.13 135.736 221.108C135.653 221.096 135.563 221.07 135.468 221.031C135.296 220.961 135.17 220.842 135.089 220.675C135.012 220.498 135.037 220.208 135.165 219.804Z" fill="#FFB520"/>
<path d="M144.944 224.825C144.766 224.774 144.546 224.7 144.285 224.604C144.03 224.521 143.752 224.424 143.453 224.312C143.164 224.205 142.855 224.089 142.527 223.965C142.209 223.846 141.902 223.725 141.606 223.604C141.091 223.392 140.674 223.215 140.353 223.072C140.042 222.933 139.803 222.807 139.636 222.694C139.475 222.595 139.374 222.497 139.332 222.402C139.3 222.311 139.306 222.207 139.349 222.091C139.428 221.879 139.576 221.656 139.795 221.422C140.016 221.18 140.257 220.944 140.518 220.717C140.787 220.494 141.05 220.29 141.305 220.105C141.564 219.911 141.763 219.759 141.903 219.649L147.019 215.72C146.837 215.645 146.712 215.599 146.641 215.581C146.584 215.558 146.506 215.531 146.407 215.502C146.321 215.466 146.183 215.41 145.992 215.331C145.811 215.257 145.516 215.135 145.106 214.967C144.514 214.724 144.044 214.525 143.695 214.371C143.359 214.21 143.109 214.069 142.946 213.946C142.792 213.827 142.703 213.712 142.678 213.602C142.663 213.495 142.684 213.365 142.741 213.21C142.83 212.968 142.95 212.823 143.101 212.773C143.255 212.714 143.525 212.741 143.911 212.855C144.067 212.908 144.242 212.969 144.436 213.038C144.634 213.097 144.833 213.168 145.034 213.25C145.247 213.326 145.454 213.406 145.654 213.488C145.858 213.561 146.046 213.632 146.217 213.703C146.389 213.773 146.549 213.845 146.698 213.917C146.86 213.984 147.021 214.055 147.179 214.131C147.351 214.202 147.53 214.281 147.717 214.369C147.904 214.457 148.12 214.557 148.364 214.669C148.441 214.7 148.532 214.749 148.64 214.815C148.76 214.876 148.867 214.942 148.961 215.014C149.065 215.09 149.143 215.178 149.194 215.277C149.248 215.366 149.256 215.464 149.217 215.57C149.152 215.744 148.973 215.977 148.678 216.268C148.396 216.553 148.036 216.873 147.597 217.227C147.171 217.575 146.686 217.95 146.142 218.35C145.611 218.745 145.066 219.15 144.505 219.565C143.948 219.971 143.397 220.374 142.853 220.775C142.309 221.175 141.813 221.55 141.364 221.9C141.54 221.961 141.789 222.058 142.114 222.192C142.451 222.319 142.763 222.441 143.049 222.559C143.325 222.673 143.671 222.82 144.087 223.002C144.513 223.188 144.942 223.393 145.376 223.616C145.598 223.729 145.765 223.826 145.879 223.906C145.992 223.985 146.071 224.068 146.116 224.154C146.165 224.229 146.18 224.308 146.161 224.389C146.151 224.474 146.125 224.575 146.082 224.691C146.053 224.768 146.023 224.834 145.992 224.888C145.961 224.942 145.908 224.981 145.833 225.006C145.762 225.021 145.654 225.016 145.509 224.99C145.378 224.959 145.19 224.903 144.944 224.825Z" fill="#FFB520"/>
<path d="M155.511 229.166C155.332 229.115 155.112 229.041 154.851 228.945C154.596 228.862 154.319 228.765 154.02 228.654C153.73 228.546 153.422 228.43 153.094 228.306C152.776 228.187 152.469 228.066 152.173 227.945C151.658 227.733 151.24 227.556 150.92 227.413C150.609 227.274 150.37 227.148 150.203 227.035C150.042 226.936 149.941 226.838 149.899 226.743C149.867 226.652 149.872 226.549 149.915 226.433C149.994 226.22 150.143 225.997 150.361 225.764C150.583 225.521 150.824 225.286 151.084 225.058C151.354 224.835 151.616 224.631 151.872 224.446C152.131 224.252 152.33 224.1 152.469 223.99L157.585 220.061C157.404 219.986 157.278 219.94 157.208 219.922C157.151 219.899 157.073 219.872 156.974 219.843C156.888 219.808 156.75 219.751 156.559 219.672C156.378 219.598 156.082 219.477 155.672 219.308C155.081 219.065 154.611 218.866 154.262 218.712C153.926 218.551 153.676 218.41 153.513 218.287C153.359 218.168 153.27 218.054 153.245 217.943C153.229 217.837 153.25 217.706 153.307 217.551C153.397 217.31 153.517 217.164 153.667 217.114C153.821 217.055 154.091 217.082 154.477 217.197C154.633 217.25 154.809 217.31 155.003 217.379C155.201 217.438 155.4 217.509 155.6 217.591C155.814 217.668 156.02 217.747 156.221 217.829C156.424 217.902 156.612 217.973 156.784 218.044C156.955 218.114 157.116 218.186 157.265 218.258C157.427 218.325 157.587 218.396 157.746 218.472C157.917 218.543 158.097 218.622 158.284 218.71C158.471 218.798 158.687 218.898 158.931 219.01C159.007 219.041 159.099 219.09 159.206 219.156C159.327 219.217 159.434 219.283 159.528 219.355C159.632 219.431 159.709 219.519 159.76 219.618C159.815 219.707 159.823 219.805 159.783 219.911C159.719 220.085 159.539 220.318 159.244 220.609C158.963 220.894 158.603 221.214 158.164 221.568C157.738 221.916 157.253 222.291 156.709 222.691C156.178 223.086 155.632 223.491 155.071 223.906C154.514 224.312 153.964 224.715 153.42 225.116C152.876 225.516 152.38 225.891 151.931 226.242C152.106 226.302 152.356 226.399 152.68 226.533C153.018 226.66 153.329 226.783 153.615 226.9C153.892 227.014 154.238 227.162 154.654 227.344C155.08 227.53 155.509 227.734 155.943 227.957C156.165 228.07 156.332 228.167 156.445 228.247C156.559 228.327 156.638 228.409 156.683 228.495C156.732 228.57 156.747 228.649 156.728 228.73C156.718 228.815 156.692 228.916 156.649 229.032C156.62 229.109 156.59 229.175 156.559 229.229C156.528 229.283 156.475 229.322 156.4 229.347C156.328 229.362 156.22 229.357 156.076 229.331C155.945 229.3 155.757 229.245 155.511 229.166Z" fill="#FFB520"/>
<path d="M167.001 233.068C166.992 232.797 166.986 232.488 166.982 232.142C166.992 231.789 166.998 231.419 166.999 231.029C166.71 230.921 166.406 230.808 166.088 230.688C165.773 230.559 165.453 230.428 165.129 230.294C164.719 230.126 164.347 229.973 164.014 229.836C163.68 229.699 163.377 229.569 163.104 229.445C162.864 229.737 162.636 230.011 162.42 230.267C162.204 230.524 162.005 230.748 161.824 230.941C161.45 231.356 161.082 231.489 160.72 231.34C160.587 231.285 160.474 231.188 160.382 231.05C160.3 230.916 160.289 230.767 160.35 230.603C160.411 230.439 160.519 230.238 160.673 230C160.83 229.753 161.008 229.497 161.204 229.233C161.415 228.963 161.631 228.69 161.854 228.414C162.081 228.129 162.294 227.865 162.493 227.624C162.703 227.354 162.982 227.017 163.329 226.614C163.69 226.205 164.067 225.781 164.461 225.342C164.854 224.902 165.245 224.472 165.631 224.051C166.021 223.621 166.367 223.251 166.669 222.941C166.743 222.86 166.83 222.773 166.931 222.681C167.034 222.579 167.144 222.49 167.26 222.415C167.385 222.344 167.51 222.289 167.634 222.251C167.767 222.217 167.896 222.225 168.02 222.276C168.144 222.327 168.242 222.418 168.315 222.548C168.391 222.668 168.446 222.802 168.479 222.949C168.522 223.101 168.549 223.251 168.559 223.4C168.579 223.553 168.591 223.686 168.593 223.798C168.602 224.247 168.609 224.763 168.613 225.344C168.627 225.928 168.634 226.516 168.635 227.107C168.645 227.701 168.65 228.266 168.65 228.8C168.65 229.335 168.643 229.783 168.629 230.145C168.611 230.461 168.595 230.8 168.582 231.162C168.578 231.528 168.567 231.885 168.547 232.233C168.528 232.582 168.497 232.903 168.454 233.197C168.423 233.486 168.378 233.712 168.317 233.876C168.256 234.041 168.148 234.141 167.991 234.177C167.845 234.217 167.705 234.209 167.571 234.155C167.399 234.084 167.264 233.961 167.164 233.787C167.067 233.602 167.013 233.363 167.001 233.068ZM165.653 228.839C165.881 228.933 166.108 229.031 166.334 229.135C166.563 229.229 166.79 229.328 167.015 229.432C167.026 229.046 167.037 228.661 167.048 228.276C167.059 227.891 167.069 227.522 167.079 227.169C167.099 226.821 167.114 226.498 167.125 226.202C167.149 225.9 167.17 225.636 167.188 225.41C167.196 225.268 167.191 225.149 167.172 225.052C167.153 224.955 167.105 224.891 167.029 224.86C166.953 224.828 166.875 224.846 166.795 224.914C166.718 224.972 166.638 225.055 166.553 225.165C166.292 225.515 165.938 225.965 165.492 226.517C165.058 227.063 164.598 227.637 164.111 228.239C164.372 228.335 164.632 228.436 164.889 228.542C165.15 228.638 165.405 228.737 165.653 228.839Z" fill="#FFB520"/>
<path d="M74.0857 227.161L85.6914 257.701C85.6914 257.701 96.1352 257.242 111.803 254.036C127.47 250.828 137.918 246.247 139.656 244.415C141.398 242.584 147.926 231.588 151.408 231.588C154.89 231.588 148.36 243.956 150.536 245.331C152.712 246.706 163.592 234.338 167.509 234.795C171.427 235.253 168.381 242.584 168.381 242.584C168.381 242.584 171.861 240.291 172.733 242.584C173.603 244.874 168.381 251.289 168.381 251.289C168.381 251.289 173.603 246.247 174.473 248.998C175.345 251.746 167.075 256.785 167.075 256.785C167.075 256.785 172.733 255.87 171.861 259.076C170.993 262.28 159.242 265.488 140.964 267.322C140.964 267.322 85.2555 287.936 70.022 284.271C54.7903 280.606 53.9203 245.331 53.9203 245.331" fill="#FFDB90"/>
<path d="M49.1331 257.702C49.1331 257.702 41.0237 205.429 48.9962 197.435C56.9669 189.443 72.1986 189.9 76.9864 205.476C81.7742 221.052 88.7362 248.081 88.7362 248.081C88.7362 248.081 56.531 261.365 49.1331 257.702Z" fill="#FF6901"/>
<path d="M86.6489 240.096C76.0105 245.221 57.396 249.857 48.3212 251.949C48.7913 255.492 49.1335 257.701 49.1335 257.701C56.5314 261.365 88.7366 248.081 88.7366 248.081C88.7366 248.081 87.917 244.901 86.6489 240.096Z" fill="#B92925"/>
<path d="M186.951 143.325C186.951 143.325 191.735 148.058 190.287 150.349C188.835 152.639 183.905 150.197 183.177 150.654C182.452 151.113 186.081 155.999 184.047 160.123C182.017 164.245 178.826 165.62 178.826 165.62C178.826 165.62 183.469 162.413 182.743 158.289C182.017 154.167 180.277 149.892 181.729 148.974C183.177 148.058 187.241 150.043 188.257 148.974C189.271 147.906 186.951 143.325 186.951 143.325Z" fill="#FFC181"/>
<path d="M190.286 150.349C190.286 150.349 189.15 154.535 191.01 155.427C192.208 155.999 193.948 151.991 193.948 151.991C193.948 151.991 192.752 156.229 193.73 157.144C194.712 158.06 197.758 154.625 197.758 154.625C197.758 154.625 196.778 158.633 197.758 159.206C198.736 159.78 200.37 157.831 200.37 157.831C200.37 157.831 199.608 162.414 201.348 162.071C201.348 162.071 199.282 162.184 199.172 160.237C199.172 160.237 197.866 161.268 196.996 160.81C196.124 160.351 196.236 158.06 196.236 158.06C196.236 158.06 193.842 159.664 192.97 158.862C192.1 158.06 192.208 156.686 192.208 156.686C192.208 156.686 191.291 157.869 190.25 157.029C188.4 155.54 188.834 150.273 188.834 150.273L190.286 150.349Z" fill="#FFC181"/>
<path d="M162.637 87.7776C163.322 85.6976 163.751 84.3021 163.751 84.3021L175.517 84.778L174.814 88.2441L162.637 87.7776ZM161.128 79.4159L154.823 98.5474C154.823 98.5474 149.553 94.8083 146.8 99.7116C144.046 104.617 151.477 108.274 154.616 106.064C156.536 104.71 159.525 96.8694 161.555 90.9839L174.223 91.164L172.766 98.3578C172.766 98.3578 169.639 97.5539 168.569 100.425C167.497 103.297 174.284 103.47 175.969 101.437C177.653 99.4026 181.49 79.9373 181.49 79.9373L161.128 79.4159Z" fill="white"/>
<path d="M240.626 48.1905L244.688 331H337.533V48.1905H240.626Z" fill="#006B93"/>
<path d="M233.082 48.1905L235.981 331H252.232L250.49 48.1905H233.082Z" fill="#003D6B"/>
<path d="M266.158 65.9046C266.158 65.9046 266.448 157.528 271.09 160.582C275.732 163.635 307.937 161.803 309.679 159.972C311.421 158.138 309.679 68.9573 306.777 65.2922C303.876 61.629 266.738 59.7954 266.158 65.9046Z" fill="#003D6B"/>
<path d="M269.061 220.441C269.061 220.441 268.479 314.506 273.123 317.561C277.765 320.613 310.84 316.34 312.58 314.506C314.322 312.676 312.58 223.494 309.68 219.829C306.776 216.165 275.443 216.471 269.061 220.441Z" fill="#003D6B"/>
<path d="M337.533 175.073L266.738 177.073C266.738 177.073 266.157 202.117 269.059 203.338C270.988 204.149 312.497 203.209 337.533 203.537V175.073Z" fill="#003D6B"/>
<path d="M253.393 119.883C253.393 122.456 251.658 124.543 249.52 124.543C247.378 124.543 245.644 122.456 245.644 119.883V105.382C245.644 102.807 247.378 100.721 249.52 100.721C251.658 100.721 253.393 102.807 253.393 105.382V119.883Z" fill="#FFB520"/>
<path d="M253.393 292.133C253.393 294.706 251.658 296.794 249.52 296.794C247.378 296.794 245.644 294.706 245.644 292.133V277.634C245.644 275.059 247.378 272.973 249.52 272.973C251.658 272.973 253.393 275.059 253.393 277.634V292.133Z" fill="#FFB520"/>
<path d="M97.7626 165.828C97.7626 165.828 107.677 173.581 109.094 177.159C110.508 180.739 106.827 188.192 106.827 188.192C106.827 188.192 99.1784 180.441 94.6464 178.054" fill="#FF6901"/>
<path d="M67.7334 161.355C67.7334 161.355 61.5028 166.425 63.2014 176.564C63.7472 179.806 88.695 194.751 92.094 193.858C95.493 192.963 95.493 179.247 95.493 179.247C95.493 179.247 70.5668 164.04 67.7334 161.355Z" fill="#FF6901"/>
<path d="M67.4522 153.602C67.4522 153.602 64.9015 166.721 68.0178 169.109C72.0689 172.212 91.811 181.93 95.4928 179.245C99.1764 176.562 100.027 160.461 100.027 160.461C100.027 160.461 73.6828 148.532 67.4522 153.602Z" fill="#FFDB90"/>
<path d="M45.6378 103.209C45.6378 103.209 48.4694 132.434 51.3047 144.957C54.1363 157.481 67.5901 160.164 73.2569 155.391C81.415 148.522 90.3944 117.521 90.3944 117.521L89.2632 93.0726L73.3974 86.5102" fill="#412A37"/>
<path d="M89.8273 91.28C89.8273 91.28 81.3306 103.208 83.031 114.539C84.7314 125.872 83.5966 129.448 79.632 128.851C75.6656 128.256 73.9651 110.364 64.3355 110.96C54.7022 111.557 56.4008 134.219 67.7327 134.814C67.7327 134.814 68.7234 153.603 71.5568 157.181C83.2652 171.968 126.599 164.42 126.599 139.202C126.599 120.876 120.99 91.28 120.99 91.28H89.8273Z" fill="#FFDB90"/>
<path d="M105.126 70.4084L101.727 59.6727C101.727 59.6727 96.6276 50.7289 72.2688 56.6921C47.9064 62.6553 43.9363 87.1073 45.6385 103.209L52.4366 104.999L104.56 92.4751L105.126 70.4084Z" fill="#FFB520"/>
<path d="M47.9071 106.19C47.9071 106.19 140.252 92.4742 140.819 90.6843C141.387 88.8962 136.285 84.7192 122.691 87.7036C122.691 87.7036 115.264 60.5269 101.728 59.6737C95.1315 59.2585 83.8806 68.6195 83.8806 77.5633C83.8806 86.5091 83.5978 95.4548 83.5978 95.4548L45.6375 103.208C45.6375 103.208 43.3733 106.786 47.9071 106.19Z" fill="#FF6901"/>
<path d="M71.5579 157.181C71.5579 157.181 79.5502 175.216 97.736 175.231C98.8744 171.674 99.4868 166.75 99.784 163.584C88.3422 165.563 76.6717 163.639 71.5579 157.181Z" fill="#FFC181"/>
<path d="M61.7561 118.129C61.7561 118.129 64.5103 114.616 67.1221 116.144C69.734 117.671 71.1858 126.224 69.154 128.361C67.1221 130.498 64.6562 127.902 65.528 125.46C66.3962 123.016 67.1221 121.641 67.1221 121.641C67.1221 121.641 64.2221 115.839 61.7561 118.129Z" fill="#FFC181"/>
<path d="M101.298 116.591C101.83 119.961 100.945 122.921 99.3276 123.203C97.7065 123.487 95.961 120.985 95.4297 117.615C94.9001 114.244 95.7845 111.284 97.4057 111.002C99.0232 110.719 100.769 113.22 101.298 116.591Z" fill="#412A37"/>
<path d="M99.1152 117.203C99.2936 118.326 97.9462 119.498 96.1089 119.818C94.2716 120.139 92.6378 119.488 92.4631 118.366C92.2866 117.243 93.6303 116.072 95.4676 115.751C97.3067 115.431 98.9387 116.081 99.1152 117.203Z" fill="white"/>
<path d="M120.447 113.231C120.979 116.6 120.094 119.562 118.477 119.844C116.856 120.127 115.11 117.624 114.579 114.255C114.047 110.885 114.934 107.923 116.555 107.641C118.174 107.358 119.918 109.861 120.447 113.231Z" fill="#412A37"/>
<path d="M118.264 113.844C118.443 114.966 117.095 116.138 115.258 116.458C113.421 116.779 111.787 116.128 111.612 115.006C111.436 113.883 112.779 112.712 114.617 112.391C116.456 112.071 118.088 112.721 118.264 113.844Z" fill="white"/>
<path d="M111.694 106.867C111.694 106.867 108.648 110.189 109.409 115.799C110.17 121.412 116.698 127.826 117.134 130.46C117.57 133.095 111.042 137.561 105.167 134.468C105.167 134.468 113.326 133.323 113.326 130.46C113.326 127.597 108.104 122.786 107.125 117.633C106.146 112.479 109.409 108.128 111.694 106.867Z" fill="#FFC181"/>
<path d="M127.035 124.618C126.165 123.016 93.7418 128.74 92.4359 130.803C92.4359 130.803 94.8298 154.167 97.6578 156.228C100.489 158.289 124.715 153.175 126.457 148.822C128.199 144.47 127.905 126.222 127.035 124.618Z" fill="#00D59A"/>
<path d="M73.0687 117.517L95.1201 130.803L94.1078 132.483L74.3783 120.267L73.0687 117.517Z" fill="#00D59A"/>
<path d="M67.7334 134.815L97.5861 153.71L97.6581 156.228L64.075 134.009L67.7334 134.815Z" fill="#00D59A"/>
<g opacity="0.300003">
<g opacity="0.300003">
<path opacity="0.300003" d="M122.725 129.501C114.98 131.75 107.191 133.22 99.1177 133.553C97.9126 133.603 97.9955 135.432 99.1952 135.383C107.447 135.044 115.385 133.54 123.298 131.244C124.453 130.908 123.882 129.166 122.725 129.501Z" fill="#00998E"/>
</g>
</g>
<g opacity="0.300003">
<g opacity="0.300003">
<path opacity="0.300003" d="M122.497 136.891C115.378 139.121 108.212 140.572 100.788 140.885C99.6779 140.932 99.759 142.762 100.863 142.716C108.452 142.396 115.751 140.913 123.03 138.634C124.089 138.304 123.559 136.56 122.497 136.891Z" fill="#00998E"/>
</g>
</g>
<g opacity="0.300003">
<g opacity="0.300003">
<path opacity="0.300003" d="M122.574 144.178C115.274 146.414 107.93 147.87 100.319 148.188C99.1826 148.234 99.2637 150.066 100.395 150.018C108.176 149.692 115.657 148.205 123.122 145.921C124.208 145.589 123.664 143.844 122.574 144.178Z" fill="#00998E"/>
</g>
</g>
<path d="M195.945 89.1147L177.955 62.8501L187.821 57.3533L195.945 89.1147Z" fill="white"/>
<path d="M204.067 86.6726L197.105 61.629L204.649 62.2396L204.067 86.6726Z" fill="white"/>
<path d="M181.438 114.769L154.745 117.824L159.967 129.428L181.438 114.769Z" fill="white"/>
</svg>
